<?xml version="1.0" encoding="UTF-8"?> <svg xmlns="http://www.w3.org/2000/svg" xmlns:xlink="http://www.w3.org/1999/xlink" viewBox="0 0 720.00 504.00"> <defs> <style type="text/css"><![CDATA[ line, polyline, path, rect, circle { fill: none; stroke: #000000; stroke-linecap: round; stroke-linejoin: round; stroke-miterlimit: 10.00; } ]]></style> </defs> <rect width="100%" height="100%" style="stroke: none; fill: #FFFFFF;"></rect> <defs> <clipPath id="cpOC4yMTkxOHw3MTQuNTIxfDQ5NS43ODF8NjcuMjU5Mg=="> <rect x="8.22" y="67.26" width="706.30" height="428.52"></rect> </clipPath> </defs> <polyline points="400.91,475.67 400.91,382.65 400.91,376.60 403.07,371.51 404.42,367.36 405.23,364.50 404.15,361.95 404.15,360.04 405.77,358.13 406.58,356.85 406.04,353.99 404.42,352.71 401.99,350.80 399.83,352.07 397.67,349.85 394.70,350.48 392.54,349.21 392.54,347.93 392.54,346.34 391.73,345.07 391.19,343.16 392.27,340.61 392.54,337.42 395.51,334.24 398.48,327.23 400.37,323.41 402.53,322.13 404.96,321.50 406.04,319.58 407.66,318.31 409.01,315.76 410.09,312.26 410.63,310.03 409.28,309.71 409.55,308.12 411.98,305.57 412.79,304.61 414.14,303.02 415.48,299.84 417.10,296.33 417.64,294.42 417.91,291.87 423.04,283.59 423.58,281.36 427.36,275.31 427.09,273.40 424.66,270.53 423.58,267.03 421.96,265.75 418.45,265.12 416.29,262.89 414.14,264.48 412.79,261.93 411.17,260.34 409.55,258.43 407.12,255.56 405.50,253.97 404.42,250.14 405.77,244.41 404.15,242.18 403.88,238.36 400.64,234.86 400.64,232.31 400.91,230.08 400.91,224.02 400.64,190.90 400.64,184.21 400.64,178.16 400.64,144.39 400.64,139.93 400.91,95.97 401.18,87.37 407.93,87.37 422.50,87.69 439.24,87.37 447.33,87.37 447.33,115.41 447.06,130.38 447.33,142.80 447.87,145.03 453.27,151.40 455.43,152.99 456.78,156.18 459.48,156.81 461.64,160.00 461.64,162.87 463.80,164.46 462.99,166.69 461.64,167.96 465.69,171.79 465.42,172.74 461.64,174.65 469.46,178.16 470.81,179.43 472.97,182.30 481.07,184.53 482.42,187.08 488.90,192.17 493.22,197.59 495.11,200.13 498.61,202.05 499.69,203.32 499.69,206.51 501.58,209.05 503.74,209.69 507.25,212.56 506.44,215.42 508.06,215.42 512.11,212.88 513.46,214.15 513.73,216.38 513.73,217.97 515.89,218.93 518.59,218.61 522.10,218.61 524.79,217.02 527.49,217.02 528.30,218.61 527.22,222.43 527.22,225.30 524.79,226.25 525.87,230.08 522.91,238.68 521.83,239.63 522.91,242.18 522.64,244.41 519.67,245.05 519.67,246.64 522.10,248.55 521.83,249.83 519.94,251.74 521.83,254.29 524.25,255.24 524.25,258.11 525.87,260.66 521.56,262.25 518.59,264.16 518.05,266.71 519.13,268.62 519.94,270.85 520.21,272.76 516.97,274.67 518.05,278.18 521.56,278.49 522.37,280.09 527.76,283.91 531.00,282.95 532.62,279.77 535.86,279.77 540.18,275.31 543.96,270.21 546.66,270.53 549.09,273.72 549.89,274.35 552.59,275.31 553.40,276.90 552.05,279.13 554.75,280.41 555.29,282.00 554.75,283.91 556.64,289.64 557.72,292.83 563.66,302.07 566.36,302.70 569.60,306.21 569.87,311.30 567.44,312.90 569.60,316.72 572.30,318.95 573.65,319.90 573.92,321.50 575.81,320.86 579.85,319.27 584.17,322.45 587.95,329.46 586.87,331.37 589.84,336.15 589.57,338.38 592.27,341.56 595.51,342.20 597.94,344.43 599.29,343.79 599.02,341.56 600.37,338.70 603.88,336.79 616.56,338.38 618.72,339.97 621.42,339.33 621.69,335.19 626.28,332.96 629.52,335.51 632.48,334.87 634.91,335.19 644.09,333.60 646.79,335.83 653.81,334.24 655.43,333.60 657.32,333.60 662.17,334.56 662.71,334.24 660.55,330.41 661.36,328.19 662.17,326.91 662.17,325.00 662.44,324.68 664.33,324.68 665.68,323.41 666.76,322.45 668.92,323.73 672.16,328.19 674.05,329.46 673.51,331.05 674.32,332.33 678.10,334.87 678.91,336.79 680.53,337.74 682.15,337.74 681.88,357.17 682.15,365.77 681.88,392.53 682.42,404.31 682.15,419.29 682.15,447.32 682.42,476.30 661.63,476.30 660.28,475.98 632.48,475.98 629.52,476.30 589.84,476.30 541.26,475.98 529.11,475.67 493.49,475.67 400.91,475.67 " style="stroke-width: 1.07; stroke: #A9A9A9; fill: #EEEEEE; fill-opacity: 0.50;" clip-path="url(#cpOC4yMTkxOHw3MTQuNTIxfDQ5NS43ODF8NjcuMjU5Mg==)"></polyline> <polyline points="405.50,253.97 407.12,255.56 409.55,258.43 411.17,260.34 412.79,261.93 414.14,264.48 416.29,262.89 418.45,265.12 421.96,265.75 423.58,267.03 424.66,270.53 427.09,273.40 427.36,275.31 423.58,281.36 423.04,283.59 417.91,291.87 417.64,294.42 417.10,296.33 415.48,299.84 414.14,303.02 412.79,304.61 411.98,305.57 409.55,308.12 409.28,309.71 410.63,310.03 410.09,312.26 409.01,315.76 407.66,318.31 406.04,319.58 404.96,321.50 402.53,322.13 400.37,323.41 398.48,327.23 395.51,334.24 392.54,337.42 392.27,340.61 391.19,343.16 391.73,345.07 392.54,346.34 392.54,347.93 392.54,349.21 394.70,350.48 397.67,349.85 399.83,352.07 401.99,350.80 404.42,352.71 406.04,353.99 406.58,356.85 405.77,358.13 404.15,360.04 404.15,361.95 405.23,364.50 404.42,367.36 403.07,371.51 400.91,376.60 400.91,382.65 400.91,475.67 345.58,475.67 293.49,475.67 290.52,475.67 260.56,475.67 219.00,475.03 191.47,475.67 152.33,475.67 108.34,475.67 93.76,475.67 79.73,475.67 63.81,475.98 63.53,474.39 60.57,472.48 58.41,470.57 56.79,467.07 55.71,462.92 54.63,461.65 54.90,459.42 53.82,457.19 54.36,454.96 53.82,451.46 54.36,448.59 56.25,444.77 54.90,441.26 54.63,439.67 52.74,437.44 52.20,435.21 50.04,433.94 49.50,431.39 47.34,429.16 50.31,424.70 51.39,423.11 52.47,420.88 53.82,414.51 56.52,405.59 55.71,403.04 56.25,401.77 58.95,399.54 62.19,392.85 64.08,387.11 64.61,385.20 64.61,383.61 65.69,382.65 65.15,381.06 65.96,375.01 66.23,373.42 67.04,368.96 67.58,360.04 68.39,355.90 69.20,352.07 69.74,350.48 70.28,347.62 70.28,343.16 71.36,340.93 70.55,336.47 71.09,332.64 71.63,328.82 70.82,326.59 71.90,324.68 71.36,321.50 71.90,318.95 72.98,313.85 73.79,310.98 73.52,309.07 73.52,307.48 73.79,305.57 75.95,299.20 75.41,297.61 76.49,292.83 75.41,289.32 77.30,286.14 75.41,282.32 76.49,281.36 79.73,282.95 79.73,280.72 77.03,276.58 76.76,274.67 77.84,271.80 76.22,268.30 75.95,267.03 75.41,264.16 76.22,260.34 75.41,258.11 74.60,255.88 76.76,253.97 77.84,251.74 77.84,248.87 76.76,246.32 75.95,243.77 73.79,241.86 74.87,241.23 77.03,241.54 80.27,244.41 83.24,245.69 84.32,245.37 83.78,244.41 81.89,242.82 83.78,242.50 86.21,242.18 87.83,244.41 90.52,244.41 93.76,242.82 95.38,241.23 97.54,241.23 99.16,241.23 99.43,243.46 100.78,244.41 102.13,246.00 104.02,246.32 106.45,246.00 108.34,245.37 109.15,245.05 111.31,244.41 114.01,244.41 119.67,247.60 123.72,249.83 126.69,254.92 128.58,257.47 129.39,260.66 129.39,262.57 129.39,263.84 129.93,265.43 130.47,266.71 129.93,268.62 129.93,270.21 129.93,271.49 130.74,273.72 132.36,275.31 136.95,276.58 143.97,277.54 148.82,278.49 151.52,279.77 154.49,279.13 169.88,273.72 171.49,272.12 174.19,270.85 177.16,270.85 182.02,270.85 186.88,270.21 189.04,270.21 193.63,270.85 196.33,270.85 198.49,271.17 201.18,272.12 203.88,273.40 206.04,275.95 207.66,275.63 211.17,273.40 215.49,273.72 218.19,273.72 230.06,268.94 232.22,268.30 234.65,268.94 236.81,270.21 239.78,271.17 250.85,268.62 254.08,266.39 257.86,265.43 260.56,264.80 267.04,262.89 268.66,262.89 275.14,261.93 277.30,260.66 279.99,258.43 282.15,258.43 284.58,259.38 287.82,258.75 289.71,258.43 292.95,257.47 296.19,257.79 299.70,258.11 304.83,255.88 307.80,254.29 309.95,253.97 355.30,253.33 355.84,253.97 373.11,253.33 379.86,253.33 405.50,253.97 " style="stroke-width: 1.07; stroke: #A9A9A9; fill: #EEEEEE; fill-opacity: 0.50;" clip-path="url(#cpOC4yMTkxOHw3MTQuNTIxfDQ5NS43ODF8NjcuMjU5Mg==)"></polyline> <polyline points="118.59,110.95 116.97,108.40 115.09,108.72 115.09,110.31 114.01,111.26 114.28,112.86 115.36,114.77 116.44,115.72 117.52,116.04 119.13,116.04 121.29,118.27 122.37,117.32 121.02,115.09 122.37,113.81 121.02,112.86 120.21,112.22 118.59,110.95 " style="stroke-width: 1.07; stroke: #A9A9A9; fill: #EEEEEE; fill-opacity: 0.50;" clip-path="url(#cpOC4yMTkxOHw3MTQuNTIxfDQ5NS43ODF8NjcuMjU5Mg==)"></polyline> <polyline points="127.77,120.18 129.12,119.86 130.47,119.86 131.01,118.27 129.93,117.32 128.85,117.32 128.04,116.04 128.04,113.49 127.23,112.54 126.15,113.81 126.15,114.77 124.80,115.09 124.80,117.00 125.61,117.95 127.23,118.59 126.96,119.55 127.77,120.18 " style="stroke-width: 1.07; stroke: #A9A9A9; fill: #EEEEEE; fill-opacity: 0.50;" clip-path="url(#cpOC4yMTkxOHw3MTQuNTIxfDQ5NS43ODF8NjcuMjU5Mg==)"></polyline> <polyline points="130.47,108.72 131.28,107.12 132.90,106.17 132.36,104.89 130.47,104.58 127.23,102.98 125.07,102.66 124.80,104.89 122.91,105.53 121.83,106.81 122.10,109.35 124.26,108.08 125.88,109.67 127.77,109.67 126.42,107.12 125.88,105.21 127.77,105.53 128.85,108.40 130.47,108.72 " style="stroke-width: 1.07; stroke: #A9A9A9; fill: #EEEEEE; fill-opacity: 0.50;" clip-path="url(#cpOC4yMTkxOHw3MTQuNTIxfDQ5NS43ODF8NjcuMjU5Mg==)"></polyline> <polyline points="135.06,132.92 133.17,130.69 132.63,129.42 135.06,125.28 136.68,122.73 137.49,121.78 140.73,121.78 140.73,123.37 142.08,123.69 143.43,124.32 144.78,126.55 142.62,127.19 140.73,126.87 139.65,127.83 138.03,127.51 138.03,129.10 135.60,129.74 135.06,130.69 138.03,130.69 141.27,132.61 142.35,137.38 143.43,140.89 144.50,140.89 144.50,138.02 145.85,138.02 147.74,139.61 150.71,141.84 152.06,143.44 151.52,145.67 151.52,146.62 150.17,148.21 148.01,147.26 147.74,145.03 147.20,143.75 145.31,143.75 143.97,144.71 142.89,143.75 143.16,142.80 141.27,141.84 140.19,139.93 139.92,136.43 139.65,134.20 136.95,134.52 135.06,132.92 " style="stroke-width: 1.07; stroke: #A9A9A9; fill: #EEEEEE; fill-opacity: 0.50;" clip-path="url(#cpOC4yMTkxOHw3MTQuNTIxfDQ5NS43ODF8NjcuMjU5Mg==)"></polyline> <polyline points="405.50,253.97 379.86,253.33 373.11,253.33 355.84,253.97 355.30,253.33 309.95,253.97 307.80,254.29 304.83,255.88 299.70,258.11 296.19,257.79 292.95,257.47 289.71,258.43 287.82,258.75 284.58,259.38 282.15,258.43 279.99,258.43 277.30,260.66 275.14,261.93 268.66,262.89 267.04,262.89 260.56,264.80 257.86,265.43 254.08,266.39 250.85,268.62 239.78,271.17 236.81,270.21 234.65,268.94 232.22,268.30 230.06,268.94 218.19,273.72 215.49,273.72 211.17,273.40 207.66,275.63 206.04,275.95 203.88,273.40 201.18,272.12 198.49,271.17 196.33,270.85 193.63,270.85 189.04,270.21 186.88,270.21 182.02,270.85 177.16,270.85 174.19,270.85 171.49,272.12 169.88,273.72 154.49,279.13 151.52,279.77 148.82,278.49 143.97,277.54 136.95,276.58 132.36,275.31 130.74,273.72 129.93,271.49 129.93,270.21 129.93,268.62 130.47,266.71 129.93,265.43 129.39,263.84 129.39,262.57 129.39,260.66 128.58,257.47 126.69,254.92 123.72,249.83 119.67,247.60 114.01,244.41 111.31,244.41 109.15,245.05 108.34,245.37 106.45,246.00 104.02,246.32 102.13,246.00 100.78,244.41 99.43,243.46 99.16,241.23 100.78,242.50 102.67,243.14 103.21,241.23 101.32,239.63 98.35,239.00 95.11,239.00 91.87,238.68 89.99,238.04 88.37,236.77 86.21,238.04 83.78,238.04 81.89,239.00 79.46,239.31 77.57,238.68 76.22,236.77 73.52,236.13 72.17,237.40 71.09,236.45 71.63,233.26 71.90,228.48 71.36,224.34 70.82,219.57 71.63,218.61 72.98,219.57 73.79,222.11 74.33,233.26 77.30,232.63 78.38,229.44 78.11,226.25 79.46,224.66 75.95,218.93 78.11,218.61 78.92,216.06 81.89,214.47 79.46,212.24 78.11,213.19 77.03,213.51 75.95,212.88 74.60,214.47 72.98,213.83 71.09,214.15 70.28,212.88 70.28,210.01 69.74,207.78 68.39,204.59 68.66,203.32 70.28,203.64 71.09,205.87 72.98,206.82 72.98,205.87 72.71,203.96 74.33,202.68 78.65,201.73 83.24,199.50 79.19,198.22 74.87,198.22 74.06,196.95 72.98,195.36 70.28,195.68 68.93,199.50 68.12,200.13 67.31,198.86 67.31,194.08 65.96,187.71 65.15,183.89 63.27,181.66 60.84,179.75 59.49,175.61 58.14,171.15 57.60,169.56 58.14,168.28 57.33,165.10 54.90,158.73 54.36,156.18 52.20,154.58 51.66,152.04 50.04,151.40 48.69,150.44 45.72,148.21 44.37,145.67 42.48,143.44 41.94,138.34 40.32,133.88 41.40,129.74 42.48,126.55 43.02,123.69 41.13,123.05 40.32,121.46 42.48,120.82 44.64,120.82 48.96,122.09 52.74,124.32 56.79,125.92 59.49,126.55 61.92,127.83 65.15,128.47 68.66,129.74 70.28,131.33 76.49,132.92 83.24,133.88 89.72,132.92 92.41,134.52 95.65,135.15 97.81,134.84 101.86,135.47 106.18,136.11 108.61,135.79 112.66,136.11 114.55,134.52 117.25,135.47 119.40,137.38 119.94,138.98 121.29,140.57 122.10,139.30 122.37,137.70 125.34,138.34 125.34,140.25 127.77,141.21 126.69,143.12 127.77,143.44 130.47,141.21 128.04,138.34 128.85,136.11 132.09,135.47 132.90,137.07 131.01,138.66 131.82,141.53 133.71,139.93 135.06,141.53 135.06,137.07 136.95,138.34 137.76,142.16 136.14,145.67 137.76,148.53 138.30,149.81 136.14,150.76 135.87,152.67 133.44,153.31 133.17,155.22 131.28,156.18 131.82,153.31 130.47,151.72 130.47,153.63 129.93,154.90 127.77,152.99 127.77,155.54 128.31,157.45 126.69,157.77 125.61,160.64 121.83,163.19 120.48,163.82 119.40,165.10 118.59,167.01 116.17,171.47 115.09,175.29 114.01,178.79 115.90,179.43 117.52,178.79 119.40,179.11 124.26,177.52 125.88,176.56 128.58,174.65 126.42,174.33 122.10,176.88 119.67,177.20 117.25,177.20 116.71,175.93 119.13,172.10 119.67,171.15 121.02,169.56 122.37,167.64 125.61,165.10 128.04,162.87 132.63,161.59 135.06,156.50 137.49,153.95 139.11,151.72 141.54,152.67 141.54,150.44 139.65,147.90 139.65,145.98 141.81,147.58 143.97,148.85 145.31,152.04 144.78,153.63 146.39,156.50 144.50,157.45 142.89,156.18 141.81,158.41 140.73,159.04 138.57,157.13 137.49,158.09 138.57,159.36 139.38,162.23 140.19,163.82 140.19,165.73 138.84,166.05 137.49,164.14 135.87,163.82 136.14,166.05 137.22,167.01 135.87,167.96 136.14,168.92 138.57,168.92 140.73,167.96 142.35,167.01 143.97,168.92 144.78,170.51 143.97,173.38 143.16,174.97 142.89,176.25 142.35,176.56 141.81,179.11 140.73,180.07 141.54,182.30 141.81,183.89 141.27,183.89 139.38,182.93 136.95,182.30 137.22,180.07 138.84,178.16 138.84,176.88 135.60,178.79 133.17,181.34 132.90,182.93 134.25,185.16 133.44,186.44 132.90,188.67 131.28,188.35 130.47,185.48 130.74,182.62 131.28,180.39 131.28,179.43 131.01,177.52 129.93,177.20 129.39,179.11 128.85,181.02 128.04,181.02 125.07,182.62 124.26,185.48 123.72,186.44 119.67,186.76 120.48,185.16 118.59,185.16 117.52,188.03 122.37,188.03 121.56,188.99 119.13,190.90 119.13,192.81 121.29,190.90 123.18,189.62 124.80,189.94 122.91,192.17 121.56,194.08 123.18,194.08 124.26,192.81 124.80,192.81 125.34,196.63 126.96,196.63 126.69,192.81 126.69,191.22 128.58,191.22 129.93,192.49 129.93,189.94 131.55,190.26 132.36,191.53 132.90,192.81 135.06,193.13 136.68,193.13 138.84,189.94 140.73,188.03 142.08,185.16 143.70,183.57 143.70,181.34 144.78,181.98 146.93,183.89 149.36,184.53 148.82,182.62 148.28,181.02 151.52,179.11 153.41,178.16 152.33,175.93 152.33,174.02 150.98,171.79 149.63,168.28 149.36,166.05 152.06,165.73 152.33,164.46 150.44,163.19 148.82,161.59 150.44,160.64 150.44,158.09 150.71,155.86 149.90,153.63 152.06,151.08 153.68,147.90 154.49,145.03 157.73,143.44 157.73,142.16 158.81,140.89 155.57,140.89 152.06,137.70 151.52,133.24 150.44,130.38 150.71,128.15 150.71,126.55 149.63,125.60 146.93,124.32 145.58,122.73 142.89,121.78 142.35,119.23 139.92,120.18 137.76,119.55 138.30,118.27 136.41,116.04 138.30,114.77 140.73,115.41 141.27,117.32 142.89,116.68 145.05,117.95 145.85,117.95 145.85,114.45 145.58,112.22 147.47,111.26 147.74,109.67 146.66,108.08 145.58,107.12 145.58,105.53 145.85,104.26 143.97,103.30 145.85,102.35 145.31,101.07 142.89,99.80 140.73,100.12 138.84,102.66 137.49,102.35 137.76,100.12 135.06,99.16 135.06,95.97 133.44,94.70 131.55,93.75 131.55,92.47 133.44,91.83 133.17,90.56 130.74,90.24 130.74,89.29 131.55,88.65 133.44,89.29 133.17,87.69 162.32,87.37 193.90,87.06 220.62,87.06 254.35,87.06 292.14,87.06 315.35,86.74 345.31,87.37 382.02,86.74 401.18,87.37 400.91,95.97 400.64,139.93 400.64,144.39 400.64,178.16 400.64,184.21 400.64,190.90 400.91,224.02 400.91,230.08 400.64,232.31 400.64,234.86 403.88,238.36 404.15,242.18 405.77,244.41 404.42,250.14 405.50,253.97 " style="stroke-width: 1.07; stroke: #A9A9A9; fill: #EEEEEE; fill-opacity: 0.50;" clip-path="url(#cpOC4yMTkxOHw3MTQuNTIxfDQ5NS43ODF8NjcuMjU5Mg==)"></polyline> <circle cx="167.75" cy="290.05" r="16.89pt" style="stroke-width: 0.71; stroke: #4A7729; stroke-opacity: 0.75; fill: #4A7729; fill-opacity: 0.75;" clip-path="url(#cpOC4yMTkxOHw3MTQuNTIxfDQ5NS43ODF8NjcuMjU5Mg==)"></circle> <circle cx="150.80" cy="281.25" r="19.56pt" style="stroke-width: 0.71; stroke: #4A7729; stroke-opacity: 0.75; fill: #4A7729; fill-opacity: 0.75;" clip-path="url(#cpOC4yMTkxOHw3MTQuNTIxfDQ5NS43ODF8NjcuMjU5Mg==)"></circle> <circle cx="161.03" cy="452.80" r="2.49pt" style="stroke-width: 0.71; stroke: #4A7729; stroke-opacity: 0.75; fill: #4A7729; fill-opacity: 0.75;" clip-path="url(#cpOC4yMTkxOHw3MTQuNTIxfDQ5NS43ODF8NjcuMjU5Mg==)"></circle> <circle cx="74.78" cy="277.22" r="21.16pt" style="stroke-width: 0.71; stroke: #4A7729; stroke-opacity: 0.75; fill: #4A7729; fill-opacity: 0.75;" clip-path="url(#cpOC4yMTkxOHw3MTQuNTIxfDQ5NS43ODF8NjcuMjU5Mg==)"></circle> <circle cx="155.23" cy="284.52" r="18.49pt" style="stroke-width: 0.71; stroke: #4A7729; stroke-opacity: 0.75; fill: #4A7729; fill-opacity: 0.75;" clip-path="url(#cpOC4yMTkxOHw3MTQuNTIxfDQ5NS43ODF8NjcuMjU5Mg==)"></circle> <circle cx="74.96" cy="245.10" r="0.89pt" style="stroke-width: 0.71; stroke: #4A7729; stroke-opacity: 0.75; fill: #4A7729; fill-opacity: 0.75;" clip-path="url(#cpOC4yMTkxOHw3MTQuNTIxfDQ5NS43ODF8NjcuMjU5Mg==)"></circle> <circle cx="98.81" cy="355.89" r="1.42pt" style="stroke-width: 0.71; stroke: #4A7729; stroke-opacity: 0.75; fill: #4A7729; fill-opacity: 0.75;" clip-path="url(#cpOC4yMTkxOHw3MTQuNTIxfDQ5NS43ODF8NjcuMjU5Mg==)"></circle> <circle cx="96.32" cy="316.42" r="2.49pt" style="stroke-width: 0.71; stroke: #4A7729; stroke-opacity: 0.75; fill: #4A7729; fill-opacity: 0.75;" clip-path="url(#cpOC4yMTkxOHw3MTQuNTIxfDQ5NS43ODF8NjcuMjU5Mg==)"></circle> <circle cx="158.02" cy="284.75" r="19.56pt" style="stroke-width: 0.71; stroke: #4A7729; stroke-opacity: 0.75; fill: #4A7729; fill-opacity: 0.75;" clip-path="url(#cpOC4yMTkxOHw3MTQuNTIxfDQ5NS43ODF8NjcuMjU5Mg==)"></circle> <circle cx="128.98" cy="311.23" r="6.22pt" style="stroke-width: 0.71; stroke: #4A7729; stroke-opacity: 0.75; fill: #4A7729; fill-opacity: 0.75;" clip-path="url(#cpOC4yMTkxOHw3MTQuNTIxfDQ5NS43ODF8NjcuMjU5Mg==)"></circle> <circle cx="74.90" cy="276.45" r="6.22pt" style="stroke-width: 0.71; stroke: #4A7729; stroke-opacity: 0.75; fill: #4A7729; fill-opacity: 0.75;" clip-path="url(#cpOC4yMTkxOHw3MTQuNTIxfDQ5NS43ODF8NjcuMjU5Mg==)"></circle> <circle cx="343.71" cy="265.62" r="3.56pt" style="stroke-width: 0.71; stroke: #4A7729; stroke-opacity: 0.75; fill: #4A7729; fill-opacity: 0.75;" clip-path="url(#cpOC4yMTkxOHw3MTQuNTIxfDQ5NS43ODF8NjcuMjU5Mg==)"></circle> <circle cx="110.22" cy="260.73" r="15.83pt" style="stroke-width: 0.71; stroke: #4A7729; stroke-opacity: 0.75; fill: #4A7729; fill-opacity: 0.75;" clip-path="url(#cpOC4yMTkxOHw3MTQuNTIxfDQ5NS43ODF8NjcuMjU5Mg==)"></circle> <circle cx="136.13" cy="338.99" r="9.42pt" style="stroke-width: 0.71; stroke: #4A7729; stroke-opacity: 0.75; fill: #4A7729; fill-opacity: 0.75;" clip-path="url(#cpOC4yMTkxOHw3MTQuNTIxfDQ5NS43ODF8NjcuMjU5Mg==)"></circle> <circle cx="69.83" cy="330.79" r="26.50pt" style="stroke-width: 0.71; stroke: #4A7729; stroke-opacity: 0.75; fill: #4A7729; fill-opacity: 0.75;" clip-path="url(#cpOC4yMTkxOHw3MTQuNTIxfDQ5NS43ODF8NjcuMjU5Mg==)"></circle> <circle cx="238.94" cy="314.09" r="17.96pt" style="stroke-width: 0.71; stroke: #4A7729; stroke-opacity: 0.75; fill: #4A7729; fill-opacity: 0.75;" clip-path="url(#cpOC4yMTkxOHw3MTQuNTIxfDQ5NS43ODF8NjcuMjU5Mg==)"></circle> <circle cx="178.12" cy="342.29" r="15.83pt" style="stroke-width: 0.71; stroke: #4A7729; stroke-opacity: 0.75; fill: #4A7729; fill-opacity: 0.75;" clip-path="url(#cpOC4yMTkxOHw3MTQuNTIxfDQ5NS43ODF8NjcuMjU5Mg==)"></circle> <circle cx="67.83" cy="370.85" r="0.89pt" style="stroke-width: 0.71; stroke: #4A7729; stroke-opacity: 0.75; fill: #4A7729; fill-opacity: 0.75;" clip-path="url(#cpOC4yMTkxOHw3MTQuNTIxfDQ5NS43ODF8NjcuMjU5Mg==)"></circle> <circle cx="172.97" cy="344.34" r="1.95pt" style="stroke-width: 0.71; stroke: #4A7729; stroke-opacity: 0.75; fill: #4A7729; fill-opacity: 0.75;" clip-path="url(#cpOC4yMTkxOHw3MTQuNTIxfDQ5NS43ODF8NjcuMjU5Mg==)"></circle> <circle cx="392.08" cy="294.08" r="0.89pt" style="stroke-width: 0.71; stroke: #4A7729; stroke-opacity: 0.75; fill: #4A7729; fill-opacity: 0.75;" clip-path="url(#cpOC4yMTkxOHw3MTQuNTIxfDQ5NS43ODF8NjcuMjU5Mg==)"></circle> <circle cx="72.41" cy="420.89" r="0.89pt" style="stroke-width: 0.71; stroke: #4A7729; stroke-opacity: 0.75; fill: #4A7729; fill-opacity: 0.75;" clip-path="url(#cpOC4yMTkxOHw3MTQuNTIxfDQ5NS43ODF8NjcuMjU5Mg==)"></circle> <circle cx="89.11" cy="460.77" r="1.42pt" style="stroke-width: 0.71; stroke: #4A7729; stroke-opacity: 0.75; fill: #4A7729; fill-opacity: 0.75;" clip-path="url(#cpOC4yMTkxOHw3MTQuNTIxfDQ5NS43ODF8NjcuMjU5Mg==)"></circle> <circle cx="179.59" cy="341.32" r="0.89pt" style="stroke-width: 0.71; stroke: #4A7729; stroke-opacity: 0.75; fill: #4A7729; fill-opacity: 0.75;" clip-path="url(#cpOC4yMTkxOHw3MTQuNTIxfDQ5NS43ODF8NjcuMjU5Mg==)"></circle> <circle cx="73.65" cy="308.20" r="15.29pt" style="stroke-width: 0.71; stroke: #4A7729; stroke-opacity: 0.75; fill: #4A7729; fill-opacity: 0.75;" clip-path="url(#cpOC4yMTkxOHw3MTQuNTIxfDQ5NS43ODF8NjcuMjU5Mg==)"></circle> <circle cx="104.68" cy="289.32" r="4.62pt" style="stroke-width: 0.71; stroke: #4A7729; stroke-opacity: 0.75; fill: #4A7729; fill-opacity: 0.75;" clip-path="url(#cpOC4yMTkxOHw3MTQuNTIxfDQ5NS43ODF8NjcuMjU5Mg==)"></circle> <circle cx="148.66" cy="319.04" r="2.49pt" style="stroke-width: 0.71; stroke: #4A7729; stroke-opacity: 0.75; fill: #4A7729; fill-opacity: 0.75;" clip-path="url(#cpOC4yMTkxOHw3MTQuNTIxfDQ5NS43ODF8NjcuMjU5Mg==)"></circle> <circle cx="132.84" cy="367.73" r="2.49pt" style="stroke-width: 0.71; stroke: #4A7729; stroke-opacity: 0.75; fill: #4A7729; fill-opacity: 0.75;" clip-path="url(#cpOC4yMTkxOHw3MTQuNTIxfDQ5NS43ODF8NjcuMjU5Mg==)"></circle> <circle cx="133.13" cy="294.49" r="6.76pt" style="stroke-width: 0.71; stroke: #4A7729; stroke-opacity: 0.75; fill: #4A7729; fill-opacity: 0.75;" clip-path="url(#cpOC4yMTkxOHw3MTQuNTIxfDQ5NS43ODF8NjcuMjU5Mg==)"></circle> <circle cx="445.05" cy="313.42" r="0.89pt" style="stroke-width: 0.71; stroke: #4A7729; stroke-opacity: 0.75; fill: #4A7729; fill-opacity: 0.75;" clip-path="url(#cpOC4yMTkxOHw3MTQuNTIxfDQ5NS43ODF8NjcuMjU5Mg==)"></circle> <circle cx="113.08" cy="309.10" r="14.23pt" style="stroke-width: 0.71; stroke: #4A7729; stroke-opacity: 0.75; fill: #4A7729; fill-opacity: 0.75;" clip-path="url(#cpOC4yMTkxOHw3MTQuNTIxfDQ5NS43ODF8NjcuMjU5Mg==)"></circle> <circle cx="156.77" cy="317.93" r="9.42pt" style="stroke-width: 0.71; stroke: #4A7729; stroke-opacity: 0.75; fill: #4A7729; fill-opacity: 0.75;" clip-path="url(#cpOC4yMTkxOHw3MTQuNTIxfDQ5NS43ODF8NjcuMjU5Mg==)"></circle> <circle cx="134.58" cy="341.96" r="0.89pt" style="stroke-width: 0.71; stroke: #4A7729; stroke-opacity: 0.75; fill: #4A7729; fill-opacity: 0.75;" clip-path="url(#cpOC4yMTkxOHw3MTQuNTIxfDQ5NS43ODF8NjcuMjU5Mg==)"></circle> <circle cx="167.59" cy="436.66" r="1.42pt" style="stroke-width: 0.71; stroke: #4A7729; stroke-opacity: 0.75; fill: #4A7729; fill-opacity: 0.75;" clip-path="url(#cpOC4yMTkxOHw3MTQuNTIxfDQ5NS43ODF8NjcuMjU5Mg==)"></circle> <circle cx="349.63" cy="253.78" r="0.89pt" style="stroke-width: 0.71; stroke: #4A7729; stroke-opacity: 0.75; fill: #4A7729; fill-opacity: 0.75;" clip-path="url(#cpOC4yMTkxOHw3MTQuNTIxfDQ5NS43ODF8NjcuMjU5Mg==)"></circle> <circle cx="276.75" cy="310.83" r="1.95pt" style="stroke-width: 0.71; stroke: #4A7729; stroke-opacity: 0.75; fill: #4A7729; fill-opacity: 0.75;" clip-path="url(#cpOC4yMTkxOHw3MTQuNTIxfDQ5NS43ODF8NjcuMjU5Mg==)"></circle> <circle cx="358.83" cy="307.81" r="1.42pt" style="stroke-width: 0.71; stroke: #4A7729; stroke-opacity: 0.75; fill: #4A7729; fill-opacity: 0.75;" clip-path="url(#cpOC4yMTkxOHw3MTQuNTIxfDQ5NS43ODF8NjcuMjU5Mg==)"></circle> <circle cx="178.90" cy="292.50" r="2.49pt" style="stroke-width: 0.71; stroke: #4A7729; stroke-opacity: 0.75; fill: #4A7729; fill-opacity: 0.75;" clip-path="url(#cpOC4yMTkxOHw3MTQuNTIxfDQ5NS43ODF8NjcuMjU5Mg==)"></circle> <circle cx="124.84" cy="379.55" r="4.09pt" style="stroke-width: 0.71; stroke: #4A7729; stroke-opacity: 0.75; fill: #4A7729; fill-opacity: 0.75;" clip-path="url(#cpOC4yMTkxOHw3MTQuNTIxfDQ5NS43ODF8NjcuMjU5Mg==)"></circle> <defs> <clipPath id="cpMHw3MjB8NTA0fDA="> <rect x="0.00" y="0.00" width="720.00" height="504.00"></rect> </clipPath> </defs> <g clip-path="url(#cpMHw3MjB8NTA0fDA=)"> <text x="8.22" y="59.80" style="font-size: 13.00px; font-style: italic; fill: #998C7C; font-family: Arial;" textLength="308.56px" lengthAdjust="spacingAndGlyphs">The larger the dot, the more schools the camp hosted</text> </g> <g clip-path="url(#cpMHw3MjB8NTA0fDA=)"> <text x="8.22" y="19.80" style="font-size: 20.00px; font-weight: bold; fill: #4A7729; font-family: Arial;" textLength="516.77px" lengthAdjust="spacingAndGlyphs">Camps that host the most schools are concentrated in</text> </g> <g clip-path="url(#cpMHw3MjB8NTA0fDA=)"> <text x="8.22" y="41.40" style="font-size: 20.00px; font-weight: bold; fill: #4A7729; font-family: Arial;" textLength="321.15px" lengthAdjust="spacingAndGlyphs">Northwestern and Central Oregon</text> </g> </svg> 